PathFileType	4	(X/Y/Z)	Patient4_TMGait_0pt3_03_right_12.trc.trc
DataRate	CameraRate	NumFrames	NumMarkers	Units	OrigDataRate	OrigDataStartFrame	OrigNumFrames
53.231939163498	53.231939163498	4	33	mm	53.231939163498	106	       141
Frame#	Time	Sacral			L.Shoulder			Chest			R.Shoulder			Neck			R.ASIS			L.ASIS			R.Thigh.Superior			R.Thigh.Lateral			R.Thigh.Inferior			R.Patella			L.Thigh.Superior			L.Thigh.Lateral			L.Thigh.Inferior			L.Patella			L.Shank.Superior			L.Shank.Lateral			L.Shank.Inferior			R.Shank.Superior			R.Shank.Lateral			R.Shank.Inferior			R.Heel			R.Midfoot.Superior			R.Midfoot.Lateral			R.Toe			L.Heel			L.Midfoot.Lateral			L.Midfoot.Superior			L.Toe			L.Elbow			L.Wrist			R.Elbow			R.Wrist			
		X1	Y1	Z1	X2	Y2	Z2	X3	Y3	Z3	X4	Y4	Z4	X5	Y5	Z5	X6	Y6	Z6	X7	Y7	Z7	X8	Y8	Z8	X9	Y9	Z9	X10	Y10	Z10	X11	Y11	Z11	X12	Y12	Z12	X13	Y13	Z13	X14	Y14	Z14	X15	Y15	Z15	X16	Y16	Z16	X17	Y17	Z17	X18	Y18	Z18	X19	Y19	Z19	X20	Y20	Z20	X21	Y21	Z21	X22	Y22	Z22	X23	Y23	Z23	X24	Y24	Z24	X25	Y25	Z25	X26	Y26	Z26	X27	Y27	Z27	X28	Y28	Z28	X29	Y29	Z29	X30	Y30	Z30	X31	Y31	Z31	X32	Y32	Z32	X33	Y33	Z33	

106	24.722500000000	725.876162010909	996.133800701900	411.272286903184	933.394216995360	1416.510609362358	222.760006161826	1026.466488431771	1345.295763906690	387.997301574081	942.481973746321	1426.041772825023	558.502379747752	912.009212120453	1481.002127051363	381.962733900222	952.427712097161	930.156612819781	534.467676011987	945.126259022620	943.337704235875	261.210318300611	1018.526235871400	747.454315610830	514.403690468550	963.316298555344	632.524929521755	588.909643435331	1050.330377774246	581.618221829817	513.422690195721	1055.119851320469	469.433099856270	542.037695151850	1005.543904925347	741.694765160497	298.061401173433	928.187411114098	615.341515897466	245.933368835237	1019.271328421298	547.302458409488	313.100065040780	1024.447134161851	472.958252787980	324.288873331830	982.973373812432	398.971451753360	321.047794790818	877.769786093238	297.528475765806	272.221696853310	906.390252322861	182.767036702654	346.616042094691	972.253141979433	402.837733661655	551.755606923486	845.512204606873	377.022906876964	609.798728256119	824.451623588395	265.644619211495	567.478575729577	619.268834632791	221.190161042703	534.160733966329	779.994675618550	147.826224602097	587.114474572772	668.525941924073	158.722761439400	612.788042743499	833.231161653313	33.149265108582	619.905271693668	758.827993902013	39.735544645914	392.660887794098	830.004448082740	35.845668312191	309.911385868610	915.492523834906	94.806033029836	335.172829031994	1041.923761216822	40.023545359128	300.046834405457	917.782115541764	1081.521918106984	67.311784704931	1091.046735833015	885.232865246954	61.655452128902	857.953672176023	1088.577292636938	680.614173523347	904.437038811042	832.571243534761	702.308241769971	
107	24.741285714286	723.645693383396	997.046565638628	408.459226236832	936.027797114014	1416.592069487897	222.218059290802	1025.516965724960	1345.644588085703	389.443904941038	938.308716477509	1426.980082532632	558.057343833270	912.069223429018	1481.564013821193	380.921607775802	948.405092342206	931.575809353667	535.217766301958	944.985136401163	943.406144460561	261.843083424574	1018.393651466110	752.118732068789	514.566112104988	966.199623276150	635.870740628166	588.928798008647	1054.488746505897	586.963982562308	513.504241566289	1061.732358179662	474.510408284505	542.253021450943	1003.330405385048	740.847893119302	298.493563781450	925.019336311399	615.324302038189	245.991694747359	1015.025876561568	546.589759525042	313.811821909980	1019.569900904575	472.484097037801	325.180804412533	977.946896760592	398.703022009928	321.536176620620	872.765864969054	297.446261168440	272.298789482805	900.942767502926	182.622681981187	346.757156977375	979.456676033572	406.626410805343	551.471688736943	852.290492724652	379.251924274340	608.123415936473	833.080887983290	267.557659632535	565.888618230213	628.703824090007	220.221301997421	530.626553483419	790.206063017564	149.646498998997	585.301266687282	678.247535774741	158.639111484998	609.846527801962	844.855689931808	34.365659635400	618.836764240748	753.089352473029	39.695982281335	392.586343872102	824.317879819627	35.800948634824	309.829229171322	909.805420059804	94.756401504388	335.152823204089	1036.247200312575	39.995959628448	300.025513071730	927.034915019514	1081.387817179897	66.826183737193	1108.299387782432	892.711120904094	61.793705890268	841.701838886025	1091.976948931802	677.000648528580	878.412220046111	834.264263817942	698.157938941933	
108	24.760071428571	721.518932356852	998.542544695930	405.819609713723	938.716021805773	1417.122527603983	222.045813206737	1024.605393614291	1346.469235925942	391.174699745458	934.251565415412	1428.448710070532	557.808662877030	912.173555490163	1482.573696034462	380.201242992471	944.297458171162	933.447451242900	536.222085723917	944.912611158285	943.913193500838	262.762330519378	1017.546411127845	756.951791541047	515.108460861339	967.952112528451	639.547231961794	589.243988757318	1057.368812108967	592.467446797899	513.986861274429	1067.054346740145	480.109103058081	542.804498960868	1000.650958083365	740.205999911607	299.236661526692	921.149971227078	615.707729893051	246.159765283884	1009.838519471894	546.088747796003	314.652762007533	1013.622699369738	472.309808697564	326.134955814159	972.042573109913	398.800964337398	322.017069426496	867.112431135622	297.516300269667	272.369211493035	895.170403923098	182.668584037796	346.873760059174	986.044518512269	410.566899363923	551.568394258068	859.071711821875	380.322462688948	607.140476803523	842.764390295267	268.288407053319	564.862369414680	639.821134648961	215.581197533414	528.226226988649	802.859801157323	150.126880932675	583.999509141462	690.641451977357	155.661186152876	607.815648094170	860.489043089545	35.744250200510	617.960370177429	747.321904494627	39.642557683220	392.515120554550	818.608250516377	35.752138881611	309.742069116258	904.086310102988	94.728133705211	335.104357457766	1030.549633763101	39.999296806590	300.009006754612	936.085289262406	1081.679313109808	67.142434139195	1125.423842811160	901.363928105953	62.728344250015	826.331819286926	1096.141860317886	673.350460007431	853.898689699965	837.140776124176	693.944145756542	
109	24.778857142857	719.505718260729	1000.573592048213	403.359551316831	941.481150048022	1418.062669652418	222.236542317514	1023.769032982194	1347.705502284843	393.171799339211	930.381499655004	1430.386053782454	557.753319123473	912.333215747907	1483.982603144821	379.793712582314	940.142996105744	935.716703065125	537.471082161490	944.911667867035	944.812951431098	263.948412261721	1015.974306583260	761.775818677448	516.010088186408	968.487425355831	643.389043733433	589.829863302095	1058.848070188034	597.895324958622	514.818858449790	1070.925363403919	486.043773218069	543.632593487087	997.512166789264	739.749429959232	300.290765743566	916.620235801170	616.462622303230	246.422932570228	1003.760654333550	545.786923862924	315.604243583654	1006.664773962469	472.415825826493	327.122494879642	965.317830883464	399.245669338161	322.472313352327	860.848665053291	297.730966778539	272.423657198694	889.089472657516	182.895237183673	346.964485566025	991.912261742681	414.527809210761	552.038369310905	865.902352483281	380.130319229537	606.943327669939	853.562027167720	267.804294076219	564.519256007452	652.898773516645	207.359150002465	527.160950892053	818.019202374964	149.243874012227	583.357203462309	705.897441229033	149.902507652582	606.899682098513	880.069328804385	37.277179138226	617.473203529726	741.531053707006	39.579046578741	392.449028029772	812.877154698935	35.699965281650	309.652996762784	898.338395135994	94.720262326595	335.031255523504	1024.833106534371	40.029745516524	299.998587126179	944.945147456262	1082.389541736982	68.179175328518	1142.284483020342	911.123180563508	64.403555049300	811.955951969258	1100.975945119095	669.793028501237	831.123759195583	841.040035929587	689.800295989419	
